<svg width="500" height="232" viewBox="0 0 500 232" fill="none" xmlns="http://www.w3.org/2000/svg">
<path d="M235.038 79.9875H195.663V170.619H235.038V79.9875Z" fill="#F15A5D"/>
<path d="M184.413 221.225C156.48 221.225 133.769 198.514 133.769 170.581V108.687H173.144V170.581C173.144 176.684 178.291 181.831 184.394 181.831C190.497 181.831 195.644 176.684 195.644 170.581V108.687H235.019V170.581C235.019 198.514 212.309 221.225 184.375 221.225H184.432H184.413Z" fill="#F15A5D"/>
<path d="M60.6442 221.225C32.7105 221.225 10 198.514 10 170.581V108.687H49.375V170.581C49.375 176.684 54.5217 181.831 60.625 181.831C66.7283 181.831 71.875 176.684 71.875 170.581V108.687H111.25V170.581C111.25 198.514 88.5396 221.225 60.6059 221.225H60.6633H60.6442Z" fill="#F15A5D"/>
<path d="M173.163 122.768H133.788V60.8739C133.788 54.7706 128.641 49.6239 122.538 49.6239C116.435 49.6239 111.288 54.7706 111.288 60.8739V122.768H71.9129V60.8739C71.8937 32.9593 94.6042 10.2297 122.538 10.2297C150.472 10.2297 173.182 32.9402 173.182 60.8739V122.768H173.163Z" fill="#F15A5D"/>
<path d="M235.038 60.644H195.663V131.301H235.038V60.644Z" fill="#F15A5D"/>
<path d="M296.952 122.538H257.577V60.6443C257.577 54.541 252.43 49.3943 246.327 49.3943C240.223 49.3943 235.077 54.541 235.077 60.6443V122.538H195.702V60.6443C195.644 32.7298 218.355 10.0193 246.288 10.0193C274.222 10.0193 296.932 32.7298 296.932 60.6634V122.558L296.952 122.538Z" fill="#F15A5D"/>
<path d="M420.721 122.538H381.346V60.6441C381.346 54.5408 376.199 49.3941 370.096 49.3941C363.992 49.3941 358.846 54.5408 358.846 60.6441V122.538H319.471V60.6441C319.471 32.7105 342.181 10 370.115 10C398.049 10 420.759 32.7105 420.759 60.6441V122.538H420.702H420.721Z" fill="#F15A5D"/>
<path d="M308.202 220.995C280.268 220.995 257.557 198.285 257.557 170.351V108.457H296.932V170.351C296.932 176.455 302.079 181.601 308.182 181.601C314.286 181.601 319.432 176.455 319.432 170.351V108.457H358.807V170.351C358.807 198.285 336.097 220.995 308.163 220.995H308.221H308.202Z" fill="#F15A5D"/>
<path d="M60.6442 221.225C32.7105 221.225 10 198.514 10 170.581V108.687H49.375V170.581C49.375 176.684 54.5217 181.831 60.625 181.831C66.7283 181.831 71.875 176.684 71.875 170.581V108.687H111.25V170.581C111.25 198.514 88.5396 221.225 60.6059 221.225H60.6633H60.6442Z" fill="#F15A5D"/>
<path d="M49.375 11.7988H10V140.906H49.375V11.7988Z" fill="#F15A5D"/>
<path d="M242.423 79.9875H203.048V170.619H242.423V79.9875Z" fill="#F89828"/>
<path d="M191.78 221.225C163.846 221.225 141.135 198.514 141.135 170.581V108.687H180.51V170.581C180.51 176.684 185.657 181.831 191.761 181.831C197.864 181.831 203.011 176.684 203.011 170.581V108.687H242.386V170.581C242.386 198.514 219.675 221.225 191.741 221.225H191.799H191.78Z" fill="#F89828"/>
<path d="M68.0099 221.225C40.0762 221.225 17.3657 198.514 17.3657 170.581V108.687H56.7407V170.581C56.7407 176.684 61.8874 181.831 67.9907 181.831C74.094 181.831 79.2407 176.684 79.2407 170.581V108.687H118.616V170.581C118.616 198.514 95.9053 221.225 67.9716 221.225H68.029H68.0099Z" fill="#F89828"/>
<path d="M180.548 122.768H141.173V60.8739C141.173 54.7706 136.027 49.6239 129.923 49.6239C123.82 49.6239 118.673 54.7706 118.673 60.8739V122.768H79.2984V60.8739C79.2792 32.9593 101.99 10.2297 129.885 10.2297C157.781 10.2297 180.529 32.9402 180.529 60.8739V122.768H180.548Z" fill="#F89828"/>
<path d="M242.423 60.644H203.048V131.301H242.423V60.644Z" fill="#F89828"/>
<path d="M304.318 122.538H264.943V60.6443C264.943 54.541 259.796 49.3943 253.693 49.3943C247.589 49.3943 242.443 54.541 242.443 60.6443V122.538H203.068V60.6443C203.049 32.7298 225.759 10.0193 253.654 10.0193C281.55 10.0193 304.299 32.7298 304.299 60.6634V122.558L304.318 122.538Z" fill="#F89828"/>
<path d="M428.087 122.538H388.712V60.6441C388.712 54.5408 383.565 49.3941 377.462 49.3941C371.359 49.3941 366.212 54.5408 366.212 60.6441V122.538H326.837V60.6441C326.837 32.7105 349.548 10 377.481 10C405.415 10 428.125 32.7105 428.125 60.6441V122.538H428.068H428.087Z" fill="#F89828"/>
<path d="M315.587 220.995C287.653 220.995 264.943 198.285 264.943 170.351V108.457H304.318V170.351C304.318 176.455 309.464 181.601 315.568 181.601C321.671 181.601 326.818 176.455 326.818 170.351V108.457H366.193V170.351C366.193 198.285 343.482 220.995 315.549 220.995H315.606H315.587Z" fill="#F89828"/>
<path d="M68.0099 221.225C40.0762 221.225 17.3657 198.514 17.3657 170.581V108.687H56.7407V170.581C56.7407 176.684 61.8874 181.831 67.9907 181.831C74.094 181.831 79.2407 176.684 79.2407 170.581V108.687H118.616V170.581C118.616 198.514 95.9053 221.225 67.9716 221.225H68.029H68.0099Z" fill="#F89828"/>
<path d="M56.76 11.7988H17.385V140.906H56.76V11.7988Z" fill="#F89828"/>
<path d="M227.711 79.9875H217.781V170.619H227.711V79.9875Z" fill="#413E98"/>
<path d="M191.78 206.493C171.996 206.493 155.887 190.383 155.887 170.561V108.667H165.817V170.561C165.817 184.873 177.468 196.544 191.78 196.544C206.091 196.544 217.762 184.892 217.762 170.561V108.667H227.692V170.561C227.692 190.345 211.582 206.493 191.76 206.493H191.78Z" fill="#413E98"/>
<path d="M68.0097 206.493C48.2265 206.493 32.0977 190.383 32.0977 170.561V108.667H42.0275V170.561C42.0275 184.873 53.6793 196.544 68.0097 196.544C82.3401 196.544 93.9918 184.892 93.9918 170.561V108.667H103.922V170.561C103.922 190.345 87.812 206.493 67.9905 206.493H68.0097Z" fill="#413E98"/>
<path d="M165.816 122.768H155.886V60.8738C155.886 46.5625 144.235 34.8916 129.904 34.8916C115.574 34.8916 103.922 46.5434 103.922 60.8738V122.768H93.9922V60.8738C93.9922 41.0906 110.102 24.9426 129.923 24.9426C149.745 24.9426 165.854 41.0523 165.854 60.8738V122.768H165.816Z" fill="#413E98"/>
<path d="M227.711 60.644H217.781V131.301H227.711V60.644Z" fill="#413E98"/>
<path d="M289.585 122.538H279.655V60.6443C279.655 46.333 268.004 34.6621 253.673 34.6621C239.343 34.6621 227.691 46.3139 227.691 60.6443V122.538H217.761V60.6443C217.761 40.8611 233.871 24.7131 253.692 24.7131C273.514 24.7131 289.623 40.8228 289.623 60.6443V122.538H289.585Z" fill="#413E98"/>
<path d="M413.355 122.538H403.425V60.6443C403.425 46.333 391.773 34.6621 377.462 34.6621C363.151 34.6621 351.48 46.3139 351.48 60.6443V122.538H341.55V60.6443C341.55 40.8611 357.66 24.7131 377.481 24.7131C397.303 24.7131 413.374 40.8228 413.374 60.6443V122.538H413.355Z" fill="#413E98"/>
<path d="M315.587 206.282C295.803 206.282 279.656 190.173 279.656 170.351V108.457H289.585V170.351C289.585 184.662 301.237 196.333 315.568 196.333C329.898 196.333 341.55 184.682 341.55 170.351V108.457H351.48V170.351C351.48 190.134 335.37 206.282 315.548 206.282H315.587Z" fill="#413E98"/>
<path d="M68.0097 206.493C48.2265 206.493 32.0977 190.383 32.0977 170.561V108.667H42.0275V170.561C42.0275 184.873 53.6793 196.544 68.0097 196.544C82.3401 196.544 93.9918 184.892 93.9918 170.561V108.667H103.922V170.561C103.922 190.345 87.812 206.493 67.9905 206.493H68.0097Z" fill="#413E98"/>
<path d="M42.0473 11.7607H32.1174V140.906H42.0473V11.7607Z" fill="#413E98"/>
<path d="M432.047 221.224C404.113 221.224 381.403 198.514 381.403 170.58V108.686H420.778V170.58C420.778 176.684 425.925 181.83 432.028 181.83C438.131 181.83 443.278 176.684 443.278 170.58V11.3391H482.653V170.58C482.653 198.514 459.942 221.224 432.009 221.224H432.066H432.047Z" fill="#F15A5D"/>
<path d="M420.893 60.644H381.518V155.81H420.893V60.644Z" fill="#F15A5D"/>
<path d="M439.394 221.224C411.46 221.224 388.75 198.514 388.75 170.58V110.618H428.125V170.58C428.125 176.684 433.272 181.83 439.375 181.83C445.478 181.83 450.625 176.684 450.625 170.58V11.3391H490V170.58C490 198.514 467.29 221.224 439.356 221.224H439.413H439.394Z" fill="#F89828"/>
<path d="M422.022 60.644H388.712V112.302H422.022V60.644Z" fill="#F89828"/>
<path d="M413.354 60.4531H403.425V111.652H413.354V60.4531Z" fill="#413E98"/>
<path d="M465.319 170.58C465.319 184.891 453.667 196.562 439.337 196.562C425.006 196.562 413.354 184.911 413.354 170.58V108.686H403.425V170.58C403.425 190.363 419.534 206.511 439.356 206.511C459.177 206.511 475.287 190.402 475.287 170.58V11.3391H465.357V170.599L465.319 170.58Z" fill="#413E98"/>
</svg>
