<svg width="836" height="324" viewBox="0 0 836 324" fill="none" xmlns="http://www.w3.org/2000/svg">
<g clip-path="url(#clip0_790_438)">
<path d="M973.097 462.871C973.097 462.871 972.821 462.776 972.702 462.674C947.368 444.06 930.674 416.145 926.916 386.07C926.615 383.625 926.388 381.143 926.134 378.652C925.184 368.494 924.172 357.977 918.143 350.145C912.751 343.149 903.968 339.397 896.906 336.913C867.913 326.63 834.707 324.949 795.263 331.669C788.104 332.881 780.241 335.423 771.935 338.091C752.616 344.317 732.641 350.749 716.026 342.986C707.219 338.855 699.693 332.514 692.406 326.378C690.275 324.599 688.181 322.802 686.032 321.079C659.277 299.513 624.932 284.004 577.895 272.278C563.261 268.615 547.595 266.077 532.453 263.626C508.59 259.756 483.88 255.75 461.726 247.258C451.525 243.328 437.58 235.771 429.089 222.01C427.345 219.193 425.962 216.222 424.902 213.208C406.783 216.024 386.692 215.882 377.018 205.568C370.055 198.125 370.812 187.66 371.537 177.553C372.169 168.709 372.84 159.57 368.258 152.728C358.929 138.803 336.97 144.647 324.477 151.981C322.55 153.108 320.568 154.308 318.614 155.518C305.367 163.61 291.658 171.976 276.934 168.128C257.926 163.211 250.92 141.977 244.721 123.239L243.698 120.207C240.037 109.243 231.601 94.4222 219.933 88.6638C214.669 86.0567 209.357 85.6524 204.117 87.4612C198.563 89.3779 194.344 93.5091 189.883 97.8964C187.094 100.638 184.223 103.444 180.978 105.722C156.477 122.837 123.891 103.277 111.001 94.0793C99.8239 86.0849 89.1341 77.1175 78.7734 68.4478C65.5413 57.3756 51.8519 45.9308 37.1682 36.4872C19.4066 25.0634 -15.6098 7.38245 -50.4936 17.2381C-56.9033 19.0463 -63.5054 21.7746 -69.8949 24.4218C-86.0119 31.0985 -102.702 38.0101 -118.588 31.0822C-130.564 25.8651 -137.482 14.4312 -144.174 3.41413C-149.621 -5.57367 -155.241 -14.8671 -163.545 -20.7355C-179.95 -32.3415 -201.078 -28.9242 -221.485 -25.63C-232.999 -23.7542 -244.901 -21.8264 -255.634 -22.7649C-282.837 -25.0682 -311.028 -36.4324 -333.656 -53.7785C-356.603 -40.5682 -384.45 -52.2152 -409.087 -64.4252C-424.982 -72.3118 -443.005 -81.2672 -461.99 -80.5053C-462.773 -80.4658 -463.477 -81.1078 -463.516 -81.8917C-463.546 -82.7032 -462.913 -83.38 -462.102 -83.4101C-442.398 -84.2028 -423.999 -75.0875 -407.792 -67.0323C-384.266 -55.3571 -357.731 -44.1913 -336.163 -55.7171C-339.374 -58.2977 -342.455 -60.9877 -345.396 -63.8149C-356.486 -74.399 -361.045 -84.9003 -358.586 -94.1349C-356.813 -100.739 -351.141 -105.605 -343.37 -107.162C-334.446 -108.939 -325.196 -105.828 -320.334 -99.4452C-310.381 -86.3541 -316.367 -66.9259 -327.937 -57.7035C-328.958 -56.8825 -329.978 -56.1536 -331.025 -55.4341C-308.999 -38.7568 -281.716 -27.8888 -255.406 -25.676C-245.049 -24.8052 -233.84 -26.6006 -221.966 -28.5378C-200.968 -31.9377 -179.259 -35.433 -161.883 -23.1552C-153.085 -16.9323 -147.284 -7.3608 -141.7 1.8586C-134.954 12.9868 -128.59 23.5218 -117.449 28.3908C-102.683 34.8114 -87.3148 28.4326 -71.0222 21.6929C-64.5587 19.0094 -57.8825 16.2448 -51.3067 14.4012C-15.3056 4.25074 20.5642 22.3169 38.7288 34.0022C53.596 43.5395 67.3491 55.0678 80.6269 66.1865C90.9419 74.8096 101.586 83.7306 112.69 91.669C125.058 100.503 156.314 119.36 179.286 103.292C182.327 101.161 185.115 98.4186 187.81 95.7679C192.318 91.335 196.992 86.7743 203.138 84.6597C209.144 82.5901 215.211 83.0376 221.182 86.0101C233.666 92.1718 242.574 107.771 246.424 119.262L247.438 122.322C253.422 140.339 260.187 160.75 277.632 165.285C291.17 168.819 304.343 160.763 317.07 153.016C319.061 151.788 321.043 150.588 322.97 149.461C339.593 139.691 361.321 137.127 370.667 151.089C375.795 158.765 375.101 168.42 374.428 177.743C373.732 187.675 373.04 197.054 379.127 203.549C387.669 212.673 406.358 213.042 424.024 210.38C421.276 200.345 422.181 189.807 426.908 181.412C434.256 168.337 451.161 162.147 463.888 167.868C471.33 171.222 476.249 178.426 475.875 185.355C475.287 196.495 463.21 202.616 456.074 205.284C450.214 207.466 439.582 210.631 427.818 212.698C428.78 215.37 430.046 217.962 431.563 220.454C439.636 233.548 452.995 240.75 462.764 244.501C484.652 252.871 509.177 256.876 532.921 260.736C548.118 263.205 563.839 265.762 578.593 269.435C626.052 281.275 660.764 296.972 687.857 318.808C690.025 320.569 692.156 322.347 694.277 324.153C701.418 330.178 708.798 336.407 717.266 340.36C732.826 347.607 752.264 341.392 771.039 335.318C779.456 332.596 787.42 330.027 794.773 328.789C834.706 321.99 868.371 323.767 897.851 334.156C905.29 336.799 914.55 340.777 920.416 348.367C926.982 356.876 928.009 367.799 929.002 378.372C929.238 380.826 929.465 383.307 929.775 385.725C933.439 414.997 949.696 442.209 974.39 460.356C975.031 460.822 975.18 461.736 974.704 462.405C974.312 462.918 973.656 463.124 973.05 462.916L973.097 462.871ZM460.886 169.797C449.754 165.979 435.747 171.623 429.438 182.834C425.029 190.661 424.232 200.527 426.894 209.915C437.845 208.062 448.143 205.153 455.039 202.556C461.5 200.149 472.429 194.683 472.937 185.21C473.31 178.466 467.869 172.87 462.639 170.522C462.052 170.259 461.455 170.023 460.849 169.815L460.886 169.797ZM-331.168 -103.593C-334.75 -104.821 -338.828 -105.141 -342.861 -104.336C-349.506 -103.01 -354.351 -98.939 -355.837 -93.4388C-358.573 -83.128 -350.622 -72.8193 -343.461 -65.9557C-340.309 -62.9332 -336.981 -60.0659 -333.542 -57.3451C-332.282 -58.1457 -331.058 -59.0204 -329.833 -59.9872C-319.284 -68.3886 -313.784 -85.9495 -322.717 -97.7046C-324.775 -100.414 -327.751 -102.421 -331.168 -103.593Z" fill="#F6595C"/>
<path d="M964.382 488.279C964.382 488.279 964.106 488.185 963.988 488.082C938.653 469.469 921.959 441.553 918.201 411.479C917.9 409.033 917.674 406.551 917.419 404.06C916.469 393.903 915.457 383.385 909.428 375.554C904.036 368.558 895.253 364.806 888.191 362.322C859.198 352.039 825.992 350.358 786.549 357.078C779.389 358.289 771.526 360.832 763.22 363.5C743.901 369.726 723.926 376.158 707.311 368.394C698.504 364.264 690.979 357.923 683.691 351.786C681.56 350.008 679.466 348.211 677.317 346.487C650.562 324.921 616.217 309.412 569.18 297.687C554.547 294.023 538.88 291.485 523.738 289.035C499.875 285.165 475.165 281.159 453.011 272.666C442.811 268.736 428.865 261.179 420.374 247.418C418.63 244.601 417.247 241.631 416.187 238.616C398.068 241.432 377.977 241.291 368.303 230.977C361.34 223.534 362.097 213.068 362.823 202.962C363.454 194.117 364.125 184.978 359.543 178.136C350.215 164.212 328.255 170.056 315.762 177.39C313.836 178.516 311.853 179.717 309.899 180.926C296.653 189.019 282.943 197.385 268.219 193.536C249.211 188.619 242.205 167.386 236.006 148.648L234.983 145.615C231.322 134.651 222.886 119.831 211.219 114.072C205.954 111.465 200.642 111.061 195.402 112.87C189.848 114.787 185.629 118.918 181.168 123.305C178.38 126.047 175.508 128.853 172.263 131.13C147.762 148.245 115.176 128.686 102.287 119.488C91.1091 111.493 80.4193 102.526 70.0586 93.8564C56.8265 82.7842 43.1371 71.3394 28.4534 61.8958C10.6918 50.472 -24.3246 32.791 -59.2084 42.6467C-65.6181 44.4549 -72.2202 47.1832 -78.6097 49.8304C-94.7267 56.5071 -111.417 63.4186 -127.302 56.4908C-139.278 51.2737 -146.197 39.8398 -152.888 28.8227C-158.336 19.8349 -163.956 10.5414 -172.259 4.67307C-188.665 -6.93289 -209.792 -3.51564 -230.2 -0.221402C-241.714 1.65436 -253.616 3.58217 -264.349 2.64365C-291.552 0.340359 -319.743 -11.0238 -342.371 -28.37C-365.318 -15.1596 -393.165 -26.8066 -417.801 -39.0166C-433.697 -46.9032 -451.72 -55.8587 -470.704 -55.0967C-471.488 -55.0572 -472.192 -55.6992 -472.231 -56.4831C-472.26 -57.2946 -471.628 -57.9715 -470.817 -58.0015C-451.113 -58.7942 -432.714 -49.6789 -416.507 -41.6237C-392.98 -29.9486 -366.446 -18.7827 -344.878 -30.3085C-348.089 -32.8891 -351.169 -35.5792 -354.111 -38.4064C-365.201 -48.9904 -369.76 -59.4917 -367.3 -68.7264C-365.528 -75.3303 -359.856 -80.196 -352.085 -81.753C-343.161 -83.5307 -333.911 -80.4199 -329.048 -74.0366C-319.096 -60.9455 -325.082 -41.5174 -336.652 -32.2949C-337.673 -31.4739 -338.693 -30.745 -339.74 -30.0256C-317.714 -13.3482 -290.43 -2.48026 -264.12 -0.267453C-253.764 0.603353 -242.555 -1.19201 -230.681 -3.12927C-209.683 -6.52916 -187.974 -10.0245 -170.598 2.2534C-161.8 8.47622 -155.998 18.0478 -150.415 27.2672C-143.669 38.3954 -137.304 48.9304 -126.164 53.7994C-111.398 60.22 -96.0296 53.8412 -79.737 47.1015C-73.2735 44.418 -66.5973 41.6534 -60.0215 39.8098C-24.0203 29.6593 11.8494 47.7254 30.014 59.4107C44.8812 68.948 58.6343 80.4763 71.9121 91.595C82.2272 100.218 92.8712 109.139 103.975 117.078C116.343 125.912 147.599 144.769 170.571 128.701C173.612 126.569 176.4 123.827 179.096 121.177C183.603 116.744 188.278 112.183 194.423 110.068C200.43 107.999 206.497 108.446 212.468 111.419C224.951 117.58 233.859 133.179 237.709 144.67L238.723 147.73C244.707 165.747 251.472 186.159 268.917 190.694C282.456 194.228 295.628 186.171 308.355 178.424C310.347 177.196 312.329 175.996 314.255 174.869C330.879 165.1 352.606 162.536 361.953 176.497C367.08 184.173 366.386 193.829 365.714 203.152C365.017 213.084 364.326 222.462 370.413 228.957C378.954 238.082 397.644 238.451 415.309 235.788C412.561 225.754 413.466 215.216 418.193 206.82C425.541 193.746 442.446 187.555 455.173 193.277C462.615 196.63 467.535 203.834 467.16 210.764C466.572 221.904 454.495 228.024 447.359 230.693C441.499 232.875 430.867 236.039 419.103 238.106C420.065 240.779 421.332 243.37 422.848 245.863C430.921 258.957 444.28 266.158 454.049 269.909C475.937 278.28 500.462 282.284 524.206 286.144C539.403 288.614 555.125 291.171 569.878 294.844C617.338 306.684 652.049 322.38 679.143 344.217C681.31 345.977 683.441 347.756 685.562 349.562C692.704 355.586 700.083 361.816 708.551 365.768C724.111 373.016 743.55 366.8 762.324 360.727C770.741 358.005 778.705 355.435 786.058 354.197C825.991 347.399 859.657 349.176 889.137 359.564C896.575 362.208 905.835 366.185 911.701 373.776C918.267 382.284 919.294 393.208 920.287 403.78C920.523 406.234 920.75 408.716 921.06 411.134C924.724 440.406 940.982 467.617 965.676 485.764C966.316 486.231 966.465 487.145 965.989 487.814C965.598 488.327 964.942 488.533 964.335 488.325L964.382 488.279ZM452.171 195.206C441.039 191.388 427.032 197.031 420.723 208.243C416.314 216.069 415.517 225.935 418.179 235.324C429.131 233.471 439.429 230.562 446.324 227.965C452.785 225.558 463.714 220.091 464.222 210.619C464.596 203.874 459.155 198.279 453.924 195.93C453.337 195.667 452.74 195.432 452.134 195.224L452.171 195.206ZM-339.882 -78.184C-343.464 -79.4126 -347.543 -79.7327 -351.576 -78.9278C-358.221 -77.601 -363.066 -73.5304 -364.552 -68.0303C-367.288 -57.7194 -359.337 -47.4107 -352.175 -40.5472C-349.024 -37.5246 -345.696 -34.6573 -342.256 -31.9365C-340.996 -32.7372 -339.773 -33.6118 -338.548 -34.5787C-327.998 -42.98 -322.499 -60.5409 -331.432 -72.296C-333.49 -75.0051 -336.466 -77.0122 -339.882 -78.184Z" fill="#FEB266"/>
<path d="M956.815 510.34C956.815 510.34 956.54 510.245 956.421 510.143C931.086 491.529 914.393 463.614 910.634 433.539C910.334 431.094 910.107 428.612 909.853 426.121C908.902 415.963 907.89 405.446 901.861 397.614C896.47 390.618 887.687 386.866 880.624 384.382C851.603 374.182 818.426 372.418 778.982 379.138C771.822 380.35 763.96 382.893 755.654 385.56C736.335 391.786 716.36 398.218 699.745 390.455C690.938 386.324 683.412 379.983 676.124 373.847C673.994 372.068 671.9 370.271 669.75 368.548C642.995 346.982 608.651 331.473 561.614 319.747C546.98 316.084 531.314 313.546 516.171 311.095C492.308 307.225 467.599 303.219 445.444 294.727C435.244 290.797 421.299 283.24 412.808 269.479C411.064 266.662 409.681 263.691 408.621 260.677C390.502 263.493 370.411 263.351 360.737 253.037C353.774 245.594 354.53 235.129 355.256 225.022C355.887 216.178 356.559 207.039 351.976 200.197C342.648 186.272 320.688 192.116 308.195 199.45C306.269 200.577 304.287 201.777 302.332 202.987C289.086 211.08 275.377 219.445 260.653 215.597C241.654 210.652 234.639 189.446 228.44 170.708L227.416 167.676C223.755 156.712 215.319 141.891 203.652 136.133C198.387 133.526 193.075 133.121 187.836 134.93C182.282 136.847 178.062 140.978 173.601 145.365C170.813 148.108 167.941 150.913 164.697 153.191C140.195 170.306 107.61 150.746 94.72 141.548C83.5426 133.554 72.8529 124.587 62.4921 115.917C49.26 104.845 35.5706 93.3998 20.8869 83.9563C3.12531 72.5325 -31.8911 54.8515 -66.7749 64.7072C-73.1845 66.5153 -79.7866 69.2437 -86.1761 71.8909C-102.293 78.5676 -118.974 85.4515 -134.869 78.5513C-146.845 73.3342 -153.763 61.9003 -160.455 50.8832C-165.902 41.8954 -171.522 32.6019 -179.826 26.7336C-196.232 15.1276 -217.359 18.5448 -237.766 21.8391C-249.281 23.7149 -261.182 25.6427 -271.916 24.7041C-299.118 22.4008 -327.309 11.0367 -349.938 -6.30948C-372.884 6.90088 -400.731 -4.74614 -425.368 -16.9561C-441.263 -24.8427 -459.286 -33.7982 -478.271 -33.0363C-479.054 -32.9968 -479.758 -33.6388 -479.797 -34.4227C-479.827 -35.2341 -479.194 -35.911 -478.383 -35.941C-458.68 -36.7338 -440.28 -27.6184 -424.073 -19.5632C-400.547 -7.88809 -374.013 3.27774 -352.445 -8.24803C-355.655 -10.8286 -358.736 -13.5187 -361.677 -16.3459C-372.767 -26.9299 -377.326 -37.4313 -374.867 -46.6659C-373.095 -53.2698 -367.422 -58.1355 -359.651 -59.6925C-350.727 -61.4702 -341.478 -58.3594 -336.615 -51.9762C-326.662 -38.8851 -332.648 -19.4569 -344.218 -10.2345C-345.239 -9.41339 -346.259 -8.68451 -347.306 -7.96508C-325.28 8.7123 -297.997 19.5802 -271.687 21.793C-261.331 22.6638 -250.121 20.8685 -238.247 18.9312C-217.249 15.5313 -195.541 12.036 -178.164 24.3139C-169.366 30.5367 -163.565 40.1082 -157.981 49.3277C-151.235 60.4559 -144.871 70.9909 -133.73 75.8599C-118.964 82.2805 -103.596 75.9017 -87.3034 69.1619C-80.8399 66.4785 -74.1638 63.7139 -67.588 61.8703C-31.5868 51.7198 4.28288 69.7859 22.4475 81.4712C37.3147 91.0085 51.0678 102.537 64.3456 113.656C74.6607 122.279 85.3047 131.2 96.409 139.138C108.777 147.972 140.033 166.829 163.005 150.761C166.046 148.63 168.834 145.888 171.529 143.237C176.037 138.804 180.711 134.243 186.856 132.129C192.863 130.059 198.921 130.534 204.901 133.479C217.385 139.641 226.293 155.24 230.143 166.731L231.156 169.791C237.141 187.808 243.896 208.247 261.35 212.754C274.889 216.288 288.061 208.232 300.788 200.485C302.78 199.257 304.762 198.057 306.688 196.93C323.312 187.16 345.04 184.596 354.386 198.558C359.514 206.234 358.82 215.889 358.147 225.212C357.451 235.144 356.759 244.523 362.846 251.018C371.388 260.142 390.077 260.512 407.743 257.849C404.995 247.814 405.899 237.276 410.626 228.881C417.975 215.806 434.88 209.616 447.607 215.337C455.048 218.691 459.968 225.895 459.593 232.824C459.006 243.964 446.929 250.085 439.793 252.754C433.933 254.935 423.301 258.1 411.536 260.167C412.498 262.839 413.765 265.431 415.281 267.923C423.355 281.017 436.713 288.219 446.482 291.97C468.361 300.368 492.896 304.345 516.639 308.205C531.837 310.674 547.558 313.231 562.312 316.904C609.771 328.744 644.483 344.441 671.576 366.277C673.744 368.038 675.874 369.816 677.996 371.622C685.137 377.647 692.516 383.876 700.984 387.829C716.535 395.104 735.983 388.861 754.757 382.787C763.174 380.065 771.138 377.496 778.492 376.258C818.425 369.459 852.09 371.236 881.57 381.625C889.009 384.268 898.269 388.246 904.134 395.836C910.701 404.345 911.728 415.268 912.721 425.841C912.957 428.295 913.183 430.776 913.493 433.194C917.157 462.466 933.415 489.678 958.109 507.825C958.75 508.291 958.898 509.205 958.423 509.874C958.031 510.387 957.375 510.593 956.769 510.386L956.815 510.34ZM444.605 217.266C433.473 213.448 419.466 219.092 413.156 230.303C408.748 238.13 407.95 247.996 410.612 257.384C421.564 255.531 431.862 252.622 438.758 250.025C445.219 247.618 456.148 242.152 456.656 232.679C457.029 225.935 451.588 220.339 446.358 217.991C445.771 217.728 445.174 217.492 444.568 217.284L444.605 217.266ZM-347.412 -56.1417C-350.994 -57.3702 -355.072 -57.6904 -359.105 -56.8855C-365.75 -55.5587 -370.595 -51.488 -372.082 -45.9879C-374.817 -35.6771 -366.867 -25.3684 -359.705 -18.5048C-356.553 -15.4823 -353.226 -12.6149 -349.786 -9.89418C-348.526 -10.6948 -347.302 -11.5695 -346.077 -12.5363C-335.528 -20.9376 -330.028 -38.4986 -338.961 -50.2536C-341.019 -52.9628 -343.995 -54.9698 -347.412 -56.1417Z" fill="#822FED"/>
</g>
<defs>
<clipPath id="clip0_790_438">
<rect width="836" height="324" fill="white"/>
</clipPath>
</defs>
</svg>
