<?xml version="1.0" encoding="utf-8"?>
<!-- Generator: Adobe Illustrator 21.0.2, SVG Export Plug-In . SVG Version: 6.00 Build 0)  -->
<svg version="1.1" id="Layer_1" xmlns="http://www.w3.org/2000/svg" xmlns:xlink="http://www.w3.org/1999/xlink" x="0px" y="0px"
	 viewBox="0 0 300 290" style="enable-background:new 0 0 300 290;" xml:space="preserve">
<style type="text/css">
	.st0{fill:#3F3899;}
	.st1{fill:#F6595C;}
	.st2{fill:#FC9822;}
</style>
<g>
	<g>
		<path class="st0" d="M296.5,6.3v212.5c0,36.4-29.6,66-66,66c-36.4,0-66-29.6-66-66V71.2c0-7.9-6.7-14.7-14.7-14.7
			c-7.9,0-14.7,6.7-14.7,14.7v147.6c0,36.4-29.6,66-66,66c-36.4,0-66-29.6-66-66V6.3h51.3v212.5c0,7.9,6.7,14.7,14.7,14.7
			c8,0,14.7-6.7,14.7-14.7V71.2c0-36.4,29.6-66,66-66c36.4,0,66,29.6,66,66v147.6c0,7.9,6.7,14.7,14.7,14.7c8,0,14.7-6.7,14.7-14.7
			V6.3H296.5z"/>
	</g>
	<g>
		<g>
			<path class="st1" d="M296.5,6.3v212.5c0,30-24.4,54.4-54.4,54.4s-54.4-24.4-54.4-54.4V71.2c0-14.5-11.8-26.2-26.2-26.2
				c-14.5,0-26.2,11.8-26.2,26.2v147.6c0,30-24.4,54.4-54.4,54.4c-30,0-54.4-24.4-54.4-54.4V6.3h28.1v212.5
				c0,14.5,11.8,26.2,26.2,26.2c14.5,0,26.2-11.8,26.2-26.2V71.2c0-30,24.4-54.4,54.4-54.4c30,0,54.4,24.4,54.4,54.4v147.6
				c0,14.5,11.8,26.2,26.2,26.2c14.5,0,26.2-11.8,26.2-26.2V6.3H296.5z"/>
		</g>
	</g>
	<g>
		<g>
			<path class="st2" d="M296.6,6.3v212.5c0,25.5-20.7,46.2-46.2,46.2c-25.5,0-46.2-20.7-46.2-46.2V71.2c0-18.9-15.4-34.4-34.4-34.4
				c-19,0-34.4,15.4-34.4,34.4v147.6c0,25.5-20.7,46.2-46.2,46.2c-25.5,0-46.2-20.7-46.2-46.2V6.3h11.9v212.5
				c0,18.9,15.4,34.4,34.4,34.4c18.9,0,34.4-15.4,34.4-34.4V71.2c0-25.5,20.7-46.2,46.2-46.2c25.5,0,46.2,20.7,46.2,46.2v147.6
				c0,18.9,15.4,34.4,34.4,34.4c18.9,0,34.4-15.4,34.4-34.4V6.3H296.6z"/>
		</g>
	</g>
</g>
</svg>
